<?xml version="1.0" encoding="UTF-8"?><svg id="Layer_1" xmlns="http://www.w3.org/2000/svg" viewBox="0 0 339.85 178.24"><defs><style>.cls-1{fill:#231f20;}</style></defs><path class="cls-1" d="M156.17,133.21c65.91-.98,164.02-60.77,164.02-60.77h-.55c-25.71-4.57-96.09,37.65-160.23,36.7h0c-.27-.01-.54,0-.81,0-.27,0-.54,0-.81,0h0c-65.91,.99-133.32-36.1-133.32-36.1h.55c5.05,3.05,65.39,59.23,129.52,60.18h0c.27,.01,.54,0,.81,0,.27,0,.54,0,.81,0h0Z"/><g><circle class="cls-1" cx="25.36" cy="116.69" r="8.57"/><circle class="cls-1" cx="70.04" cy="138.41" r="8.57"/><circle class="cls-1" cx="114.71" cy="152.39" r="8.57"/><circle class="cls-1" cx="159.39" cy="161.81" r="8.57"/><circle class="cls-1" cx="204.07" cy="152.13" r="8.57"/><circle class="cls-1" cx="248.75" cy="131.55" r="8.57"/><circle class="cls-1" cx="293.43" cy="109.53" r="8.57"/></g></svg>